# xmcd
#
# Track frame offsets:
#        150
#        8556
#        19646
#        37908
#        51854
#        68746
#        77206
#        96593
#        110233
#        129280
#        142315
#        160109
#        174799
#        191955
#
# Disc length: 2750 seconds
#
# Revision: 0
# Processed by: cddbd v1.5.1PL0 Copyright (c) Steve Scherf et al.
# Submitted via: ExactAudioCopy v0.95a3
#
DISCID=ba0abc0e
DTITLE=LIDLESS TOYBOX - BREAK THE SILENCE
DYEAR=2004
DGENRE=
TTITLE0=Just You-in the mirror-
TTITLE1=In Doubt
TTITLE2=Sailing
TTITLE3=She is All In Black
TTITLE4=Sickness
TTITLE5=Break It Down
TTITLE6=In The Sleep
TTITLE7=Invisiblity Mind
TTITLE8=These Days
TTITLE9=Under Ground
TTITLE10=Kingdom of Chains
TTITLE11=Joe
TTITLE12=Boy's Order
TTITLE13=Fate
EXTD=
EXTT0=
EXTT1=
EXTT2=
EXTT3=
EXTT4=
EXTT5=
EXTT6=
EXTT7=
EXTT8=
EXTT9=
EXTT10=
EXTT11=
EXTT12=
EXTT13=
PLAYORDER=
